# xmcd
#
# Track frame offsets:
#	150
#	20852
#	34937
#	46410
#	60101
#	75821
#	90684
#	104555
#	120103
#	133674
#	153187
#	166578
#	180680
#
# Disc length: 2590 seconds
#
# Revision: 1
# Processed by: cddbd v1.5.2PL0 Copyright (c) Steve Scherf et al.
# Submitted via: EasyCDDAExtractor 11.1.0.1
#
DISCID=910a1c0d
DTITLE=Bukka White - Big Daddy
DYEAR=1974
DGENRE=Blues
TTITLE0=Gibson Hill
TTITLE1=Black Cat Bone Blues
TTITLE2=1936 Trigger Toe
TTITLE3=Cryin' Holy Unto The Lord
TTITLE4=Shake My Hand Blues
TTITLE5=Sic Em Dogs
TTITLE6=Aberdeen Mississippi
TTITLE7=Mama Don' Low
TTITLE8=Hot Springs Arkansas
TTITLE9=Jelly Roll Morton Man
TTITLE10=Black Crepe Blues
TTITLE11=Glory Bound Train
TTITLE12=Hobo Blues
EXTD=
EXTT0=
EXTT1=
EXTT2=
EXTT3=
EXTT4=
EXTT5=
EXTT6=
EXTT7=
EXTT8=
EXTT9=
EXTT10=
EXTT11=
EXTT12=
PLAYORDER=
